<svg width="90" height="18" viewBox="0 0 90 18" fill="none" xmlns="http://www.w3.org/2000/svg">
<path d="M5.64595 17.0232H2.2877V8.63194H0V5.89991H2.28761V3.95587C2.28761 1.65219 3.29943 0 6.64859 0C7.35694 0 8.46902 0.143109 8.46902 0.143109V2.67995H7.30097C6.11082 2.67995 5.64613 3.04281 5.64613 4.04601V5.89991H8.42446L8.17705 8.63194H5.64604L5.64595 17.0232ZM13.3515 5.68158C13.3026 5.68158 13.2523 5.68337 13.2024 5.68462C10.0885 5.68462 8.66375 8.03243 8.66375 11.3652C8.66375 15.5636 10.5118 17.244 13.2268 17.244C14.7801 17.244 15.8006 16.5886 16.4209 15.3657V17.0244H19.6151V5.90107H16.4209V7.61168C15.9145 6.51111 14.8654 5.69462 13.3515 5.68158ZM14.1637 8.30999C15.4716 8.30999 16.2566 9.22438 16.2566 10.7797L16.2596 12.3683C16.2596 13.4166 15.6113 14.6431 14.1637 14.6431C11.9383 14.6431 11.9978 12.2345 11.9978 11.4323C11.9978 8.73386 13.1835 8.30999 14.1637 8.30999ZM20.9051 11.4633C20.9051 10.1116 20.8406 5.68882 26.5894 5.68882C28.897 5.68882 29.8606 6.42428 29.8606 6.42428L29.0861 8.83204C29.0861 8.83204 28.1238 8.30087 26.8698 8.30087C25.2637 8.30087 24.2389 9.23412 24.2389 10.8761L24.2407 12.0535C24.2407 13.6313 25.2295 14.6845 26.8731 14.6845C28.0155 14.6845 29.0684 14.1483 29.0684 14.1483L29.8409 16.5058C29.8409 16.5058 28.9599 17.2459 26.6055 17.2459C21.1317 17.2459 20.9052 13.2778 20.9052 11.4633H20.9051ZM48.5892 5.68462C51.7033 5.68462 53.1505 8.03243 53.1505 11.3652C53.1505 15.5636 51.3023 17.244 48.5874 17.244C47.034 17.244 45.8858 16.5887 45.2655 15.3657V17.0244L42.1115 17.0231V0.338209L45.4602 0.0454698V7.46098C45.9435 6.16361 47.5319 5.68462 48.5893 5.68462H48.5892ZM47.6504 8.30999C46.3425 8.30999 45.4602 9.22438 45.4602 10.7797L45.4571 12.3683C45.4551 13.4166 46.0681 14.6431 47.6504 14.6431C49.8758 14.6431 49.8164 12.2345 49.8164 11.4323C49.8164 8.73386 48.6308 8.30999 47.6504 8.30999ZM35.6709 5.69382C32.139 5.69382 30.2743 7.62401 30.2743 11.0542V11.6915C30.2743 16.1435 32.8929 17.2897 36.0147 17.2897C39.049 17.2897 40.4225 16.439 40.4225 16.439L39.7959 14.1735C39.7959 14.1735 38.1803 14.8625 36.4162 14.8625C34.5874 14.8625 33.8008 14.3953 33.5993 12.6337H40.6903V10.8163C40.6903 7.09543 38.5975 5.69373 35.6708 5.69373L35.6709 5.69382ZM35.756 7.96231C36.9786 7.96231 37.7708 8.71376 37.7274 10.4565H33.6054C33.6769 8.62229 34.5312 7.9624 35.756 7.9624V7.96231ZM59.8277 5.67854C56.2006 5.67854 54.2912 7.72727 54.2912 11.3987C54.2912 16.4361 57.5827 17.247 59.8337 17.247C63.1291 17.247 65.3216 15.4687 65.3216 11.4445C65.3216 7.25596 62.8564 5.67854 59.8277 5.67854ZM59.782 8.3191C61.3769 8.3191 62.0089 9.51551 62.0089 10.8774V12.0482C62.0089 13.698 61.1246 14.6523 59.776 14.6523C58.5147 14.6523 57.6283 13.7597 57.6283 12.0482V10.8774C57.6283 9.05215 58.6831 8.3191 59.782 8.3191ZM71.9928 5.67854C68.3658 5.67854 66.4563 7.72727 66.4563 11.3987C66.4563 16.4361 69.7478 17.247 71.9989 17.247C75.2942 17.247 77.4867 15.4687 77.4867 11.4445C77.4867 7.25596 75.0215 5.67854 71.9928 5.67854ZM71.9472 8.3191C73.542 8.3191 74.1739 9.51551 74.1739 10.8774V12.0482C74.1739 13.698 73.2896 14.6523 71.9411 14.6523C70.6798 14.6523 69.7934 13.7597 69.7934 12.0482V10.8774C69.7934 9.05215 70.8482 8.3191 71.9472 8.3191ZM78.7522 17.0232V0.338209L82.1106 0.0454698V11.2288L85.4426 5.89991H88.9893L85.5135 11.4191L89.1232 17.0232H85.5664L82.1106 11.5817V17.0232H78.7522Z" fill="#1877F2"/>
</svg>
