<svg width="75" height="24" viewBox="0 0 75 24" fill="none" xmlns="http://www.w3.org/2000/svg">
<path d="M72.3223 14.657L74.3819 16.0121C73.7134 16.9839 72.1145 18.6511 69.3504 18.6511C65.9177 18.6511 63.3613 16.03 63.3613 12.6957C63.3613 9.14736 65.9448 6.74023 69.0613 6.74023C72.1958 6.74023 73.7315 9.20086 74.2283 10.5292L74.4993 11.2068L66.4236 14.5055C67.0379 15.7001 67.9954 16.3063 69.3504 16.3063C70.7053 16.3063 71.6448 15.6466 72.3223 14.657ZM65.99 12.5084L71.3828 10.2974C71.0847 9.55747 70.1995 9.03147 69.1426 9.03147C67.7966 9.03147 65.9268 10.2083 65.99 12.5084Z" fill="#FF302F"/>
<path d="M59.4688 0.667969H62.0703V18.1063H59.4688V0.667969Z" fill="#20B15A"/>
<path d="M55.3677 7.20396H57.8789V17.7953C57.8789 22.1906 55.2503 24.0004 52.1428 24.0004C49.2161 24.0004 47.4546 22.0568 46.7952 20.4788L49.0986 19.5338C49.5142 20.5056 50.5169 21.6556 52.1428 21.6556C54.1392 21.6556 55.3677 20.4343 55.3677 18.1519V17.2961H55.2774C54.6812 18.0093 53.543 18.6512 52.0977 18.6512C49.0806 18.6512 46.3164 16.0568 46.3164 12.7136C46.3164 9.35254 49.0806 6.73145 52.0977 6.73145C53.534 6.73145 54.6812 7.36443 55.2774 8.05982H55.3677V7.20396ZM55.5484 12.7136C55.5484 10.6096 54.1301 9.07617 52.3235 9.07617C50.4988 9.07617 48.9631 10.6096 48.9631 12.7136C48.9631 14.7909 50.4988 16.2976 52.3235 16.2976C54.1301 16.3065 55.5484 14.7909 55.5484 12.7136Z" fill="#3686F7"/>
<path d="M32.0352 12.6684C32.0352 16.1008 29.3252 18.6239 26.001 18.6239C22.6768 18.6239 19.9668 16.0919 19.9668 12.6684C19.9668 9.21822 22.6768 6.7041 26.001 6.7041C29.3252 6.7041 32.0352 9.21822 32.0352 12.6684ZM29.3975 12.6684C29.3975 10.5288 27.8257 9.05774 26.001 9.05774C24.1763 9.05774 22.6045 10.5288 22.6045 12.6684C22.6045 14.7903 24.1763 16.2791 26.001 16.2791C27.8257 16.2791 29.3975 14.7903 29.3975 12.6684Z" fill="#FF302F"/>
<path d="M45.2149 12.6957C45.2149 16.128 42.5049 18.6511 39.1807 18.6511C35.8564 18.6511 33.1465 16.128 33.1465 12.6957C33.1465 9.24543 35.8564 6.74023 39.1807 6.74023C42.5049 6.74023 45.2149 9.23652 45.2149 12.6957ZM42.5681 12.6957C42.5681 10.556 40.9964 9.08496 39.1716 9.08496C37.3469 9.08496 35.7752 10.556 35.7752 12.6957C35.7752 14.8175 37.3469 16.3063 39.1716 16.3063C41.0054 16.3063 42.5681 14.8086 42.5681 12.6957Z" fill="#FFBA40"/>
<path d="M10.0481 16.0386C6.2632 16.0386 3.3003 13.0252 3.3003 9.28974C3.3003 5.55423 6.2632 2.54086 10.0481 2.54086C12.0896 2.54086 13.5801 3.33432 14.6822 4.35066L16.4978 2.55869C14.9622 1.1055 12.9116 0 10.0481 0C4.86305 0 0.5 4.17236 0.5 9.28974C0.5 14.4071 4.86305 18.5795 10.0481 18.5795C12.8484 18.5795 14.9622 17.6701 16.6153 15.9762C18.3135 14.3001 18.8374 11.9465 18.8374 10.0386C18.8374 9.4413 18.7652 8.82614 18.6839 8.37146H10.0481V10.8499H16.1997C16.0191 12.4012 15.5223 13.4621 14.7906 14.1842C13.9053 15.0668 12.5052 16.0386 10.0481 16.0386Z" fill="#3686F7"/>
</svg>
