<svg width="12" height="12" viewBox="0 0 12 12" fill="none" xmlns="http://www.w3.org/2000/svg">
<g clip-path="url(#clip0_3804_5929)">
<path d="M10.4369 6.75871C10.2784 6.53983 10.193 6.27646 10.193 6.00618C10.193 5.7359 10.2784 5.47253 10.4369 5.25365L10.7619 4.80469C10.8016 4.74987 10.8278 4.6864 10.8382 4.6195C10.8486 4.55259 10.8429 4.48418 10.8217 4.41988C10.8003 4.35625 10.7645 4.29844 10.717 4.25097C10.6695 4.2035 10.6117 4.16765 10.5481 4.14623L10.0222 3.9752C9.76455 3.89209 9.53998 3.72928 9.3809 3.51025C9.22182 3.29122 9.13644 3.02731 9.1371 2.75661V2.20076C9.13705 2.13327 9.12102 2.06676 9.09034 2.00665C9.05965 1.94655 9.01517 1.89456 8.96054 1.85494C8.9059 1.81532 8.84267 1.78919 8.776 1.7787C8.70934 1.76821 8.64113 1.77364 8.57697 1.79456L8.04678 1.96559C7.78938 2.04889 7.51224 2.04866 7.25498 1.96496C6.99771 1.88125 6.7735 1.71835 6.6144 1.49954L6.28945 1.05058C6.24795 0.998551 6.19527 0.956536 6.13531 0.92766C6.07535 0.898784 6.00966 0.883789 5.94311 0.883789C5.87656 0.883789 5.81086 0.898784 5.75091 0.92766C5.69095 0.956536 5.63826 0.998551 5.59677 1.05058L5.27182 1.49954C5.11271 1.71835 4.8885 1.88125 4.63124 1.96496C4.37398 2.04866 4.09684 2.04889 3.83944 1.96559L3.30925 1.79456C3.24508 1.77364 3.17688 1.76821 3.11021 1.7787C3.04355 1.78919 2.98031 1.81532 2.92568 1.85494C2.87105 1.89456 2.82657 1.94655 2.79588 2.00665C2.7652 2.06676 2.74917 2.13327 2.74912 2.20076V2.75661C2.74978 3.02731 2.6644 3.29122 2.50532 3.51025C2.34624 3.72928 2.12167 3.89209 1.86404 3.9752L1.33812 4.14623C1.2745 4.16765 1.21669 4.2035 1.16921 4.25097C1.12174 4.29844 1.0859 4.35625 1.06448 4.41988C1.04327 4.48418 1.03764 4.55259 1.04805 4.6195C1.05846 4.6864 1.0846 4.74987 1.12434 4.80469L1.44929 5.25365C1.60786 5.47253 1.69323 5.7359 1.69323 6.00618C1.69323 6.27646 1.60786 6.53983 1.44929 6.75871L1.12434 7.20767C1.0846 7.26249 1.05846 7.32596 1.04805 7.39287C1.03764 7.45977 1.04327 7.52818 1.06448 7.59248C1.0859 7.65611 1.12174 7.71392 1.16921 7.76139C1.21669 7.80887 1.2745 7.84471 1.33812 7.86613L1.86404 8.03716C2.12167 8.12027 2.34624 8.28308 2.50532 8.50211C2.6644 8.72114 2.74978 8.98505 2.74912 9.25575V9.8116C2.74917 9.87909 2.7652 9.9456 2.79588 10.0057C2.82657 10.0658 2.87105 10.1178 2.92568 10.1574C2.98031 10.197 3.04355 10.2232 3.11021 10.2337C3.17688 10.2442 3.24508 10.2387 3.30925 10.2178L3.83516 10.0468C4.09311 9.96207 4.3713 9.96158 4.62954 10.0454C4.88779 10.1291 5.11271 10.2928 5.27182 10.5128L5.59677 10.9618C5.63669 11.0161 5.68885 11.0603 5.74901 11.0908C5.80918 11.1212 5.87567 11.1371 5.94311 11.1371C6.01055 11.1371 6.07704 11.1212 6.13721 11.0908C6.19737 11.0603 6.24953 11.0161 6.28945 10.9618L6.6144 10.5128C6.77377 10.2931 6.99871 10.1297 7.25686 10.0459C7.51502 9.96219 7.79308 9.96248 8.05106 10.0468L8.57697 10.2178C8.64113 10.2387 8.70934 10.2442 8.776 10.2337C8.84267 10.2232 8.9059 10.197 8.96054 10.1574C9.01517 10.1178 9.05965 10.0658 9.09034 10.0057C9.12102 9.9456 9.13705 9.87909 9.1371 9.8116V9.25575C9.13644 8.98505 9.22182 8.72114 9.3809 8.50211C9.53998 8.28308 9.76455 8.12027 10.0222 8.03716L10.5481 7.86613C10.6117 7.84471 10.6695 7.80887 10.717 7.76139C10.7645 7.71392 10.8003 7.65611 10.8217 7.59248C10.8429 7.52818 10.8486 7.45977 10.8382 7.39287C10.8278 7.32596 10.8016 7.26249 10.7619 7.20767L10.4369 6.75871ZM7.95699 5.45333L5.81911 7.5912C5.73893 7.67136 5.63019 7.71639 5.51682 7.71639C5.40344 7.71639 5.2947 7.67136 5.21452 7.5912L3.9318 6.30848C3.89096 6.26903 3.85838 6.22185 3.83597 6.16969C3.81357 6.11752 3.80177 6.06142 3.80128 6.00464C3.80078 5.94787 3.8116 5.89157 3.8331 5.83902C3.8546 5.78647 3.88635 5.73873 3.9265 5.69859C3.96664 5.65844 4.01438 5.62669 4.06693 5.60519C4.11948 5.58369 4.17578 5.57287 4.23255 5.57337C4.28933 5.57386 4.34543 5.58566 4.3976 5.60806C4.44976 5.63047 4.49694 5.66305 4.53639 5.70389L5.51553 6.68432L7.35111 4.84873C7.43176 4.77085 7.53976 4.72775 7.65187 4.72873C7.76398 4.7297 7.87122 4.77467 7.9505 4.85394C8.02977 4.93322 8.07474 5.04046 8.07572 5.15257C8.07669 5.26468 8.03359 5.37268 7.95571 5.45333H7.95699Z" fill="white"/>
</g>
<defs>
<clipPath id="clip0_3804_5929">
<rect width="10.2618" height="10.2618" fill="white" transform="translate(0.8125 0.875)"/>
</clipPath>
</defs>
</svg>
