<svg width="35" height="34" viewBox="0 0 35 34" fill="none" xmlns="http://www.w3.org/2000/svg">
<g clip-path="url(#clip0_3855_6306)">
<path fill-rule="evenodd" clip-rule="evenodd" d="M17.4827 0.159668L21.035 3.6226L25.8484 2.40348L27.1989 7.18012L31.9755 8.52536L30.7512 13.3388L34.2141 16.8963L30.7512 20.4486L31.9755 25.262L27.1989 26.6125L25.8484 31.3891L21.035 30.1647L17.4827 33.6277L13.9252 30.1647L9.11178 31.3891L7.76655 26.6125L2.98991 25.262L4.20903 20.4486L0.746094 16.8963L4.20903 13.3388L2.98991 8.52536L7.76655 7.18012L9.11178 2.40348L13.9252 3.6226L17.4827 0.159668Z" fill="#58C2FE"/>
<path fill-rule="evenodd" clip-rule="evenodd" d="M8.64844 17.611L11.0551 14.9678L16.1839 19.466L24.5075 10.27L26.8774 12.4403L17.0141 23.4491C17.0141 23.4491 16.0262 23.8432 15.3168 23.3703C16.0262 23.8432 8.64844 17.611 8.64844 17.611Z" fill="#FEFEFE"/>
</g>
<defs>
<clipPath id="clip0_3855_6306">
<rect width="33.468" height="33.468" fill="white" transform="translate(0.746094 0.159668)"/>
</clipPath>
</defs>
</svg>
